STARTFONT 2.1
COMMENT
COMMENT Converted from OpenType font "..\ttf\Gotham Book Regular.otf" by "otf2bdf.exe 3.0".
COMMENT
FONT -FreeType-Gotham Book-Medium-R-Normal--33-240-100-100-P-157-ISO10646-1
SIZE 24 100 100
FONTBOUNDINGBOX 40 36 -2 -6
STARTPROPERTIES 19
FOUNDRY "FreeType"
FAMILY_NAME "Gotham Book"
WEIGHT_NAME "Medium"
SLANT "R"
SETWIDTH_NAME "Normal"
ADD_STYLE_NAME ""
PIXEL_SIZE 33
POINT_SIZE 240
RESOLUTION_X 100
RESOLUTION_Y 100
SPACING "P"
AVERAGE_WIDTH 157
CHARSET_REGISTRY "ISO10646"
CHARSET_ENCODING "1"
FONT_ASCENT 29
FONT_DESCENT 5
COPYRIGHT "HTF Gothamª Copr. 2000 The Hoefler Type Foundry, Inc. Info: www.typography.com"
_OTF_FONTFILE "..\ttf\Gotham Book Regular.otf"
_OTF_PSNAME "Gotham-Book"
ENDPROPERTIES
CHARS 223
STARTCHAR 0020
ENCODING 32
SWIDTH 300 0
DWIDTH 10 0
BBX 0 0 0 0
BITMAP
ENDCHAR
STARTCHAR 0021
ENCODING 33
SWIDTH 270 0
DWIDTH 9 0
BBX 3 23 3 0
BITMAP
E0
E0
E0
E0
E0
E0
E0
E0
E0
C0
C0
C0
C0
40
40
40
00
00
00
00
E0
E0
E0
ENDCHAR
STARTCHAR 0022
ENCODING 34
SWIDTH 450 0
DWIDTH 15 0
BBX 10 9 2 14
BITMAP
71C0
71C0
61C0
61C0
6180
6180
C180
C100
C100
ENDCHAR
STARTCHAR 0023
ENCODING 35
SWIDTH 690 0
DWIDTH 23 0
BBX 20 23 1 0
BITMAP
0181C0
0181C0
018180
038180
038180
030180
3FFFF0
3FFFF0
030300
070300
070300
060300
060700
060700
060600
FFFFE0
FFFFE0
0C0600
0C0E00
0C0C00
1C0C00
1C0C00
180C00
ENDCHAR
STARTCHAR 0024
ENCODING 36
SWIDTH 630 0
DWIDTH 21 0
BBX 17 28 2 -4
BITMAP
00C000
00C000
07F000
1FFC00
3CFF00
70C600
70C200
60C000
60C000
70C000
70C000
3CC000
1FC000
07F800
00FE00
00DF00
00C700
00C300
00C380
00C380
40C300
F0C700
7EDE00
1FFC00
07F000
00C000
00C000
00C000
ENDCHAR
STARTCHAR 0025
ENCODING 37
SWIDTH 840 0
DWIDTH 28 0
BBX 24 23 2 0
BITMAP
1E0038
7F0030
618060
C1C0E0
C0C0C0
C0C180
C0C300
C0C700
E18600
738C00
3F1C00
003800
0031F8
0063DC
00E30E
00C706
018607
030607
070706
060306
0C038E
1801FC
3800F0
ENDCHAR
STARTCHAR 0026
ENCODING 38
SWIDTH 690 0
DWIDTH 23 0
BBX 21 23 1 -1
BITMAP
01F000
07FC00
071E00
0E0E00
0C0600
0C0600
0C0600
0E0E00
071C00
07F800
07E000
0FE020
3CF070
787860
703CE0
601EC0
E00FC0
600780
7007C0
700FE0
3C3CF0
1FF878
07E030
ENDCHAR
STARTCHAR 0027
ENCODING 39
SWIDTH 240 0
DWIDTH 8 0
BBX 4 9 2 14
BITMAP
70
70
60
60
60
60
C0
C0
C0
ENDCHAR
STARTCHAR 0028
ENCODING 40
SWIDTH 420 0
DWIDTH 14 0
BBX 10 27 2 -4
BITMAP
00C0
03C0
0700
0E00
1C00
1800
3800
3000
7000
6000
6000
E000
E000
E000
E000
E000
E000
6000
7000
7000
3800
3800
1C00
0E00
0700
03C0
01C0
ENDCHAR
STARTCHAR 0029
ENCODING 41
SWIDTH 420 0
DWIDTH 14 0
BBX 10 27 2 -4
BITMAP
E000
F000
3800
1C00
0E00
0700
0700
0380
0380
0180
01C0
01C0
01C0
01C0
01C0
01C0
01C0
0180
0180
0380
0300
0700
0E00
1C00
3800
7000
E000
ENDCHAR
STARTCHAR 002A
ENCODING 42
SWIDTH 420 0
DWIDTH 14 0
BBX 8 10 3 12
BITMAP
18
18
99
FF
3C
3C
FF
99
18
18
ENDCHAR
STARTCHAR 002B
ENCODING 43
SWIDTH 630 0
DWIDTH 21 0
BBX 16 16 2 3
BITMAP
01C0
01C0
01C0
01C0
01C0
01C0
01C0
FFFF
FFFF
FFFF
01C0
01C0
01C0
01C0
01C0
01C0
ENDCHAR
STARTCHAR 002C
ENCODING 44
SWIDTH 240 0
DWIDTH 8 0
BBX 4 7 2 -3
BITMAP
70
70
70
20
60
E0
80
ENDCHAR
STARTCHAR 002D
ENCODING 45
SWIDTH 420 0
DWIDTH 14 0
BBX 9 2 2 9
BITMAP
FF80
FF80
ENDCHAR
STARTCHAR 002E
ENCODING 46
SWIDTH 240 0
DWIDTH 8 0
BBX 3 3 3 1
BITMAP
E0
E0
E0
ENDCHAR
STARTCHAR 002F
ENCODING 47
SWIDTH 510 0
DWIDTH 17 0
BBX 16 30 0 -4
BITMAP
0003
0003
0006
0006
000C
000C
0018
0018
0030
0030
0060
0060
00C0
00C0
0180
0180
0300
0300
0600
0600
0C00
0C00
1800
1800
3000
3000
6000
6000
C000
C000
ENDCHAR
STARTCHAR 0030
ENCODING 48
SWIDTH 720 0
DWIDTH 24 0
BBX 19 23 2 0
BITMAP
01F800
07FE00
0F1F00
1C0780
3803C0
7001C0
7000E0
6000E0
E000E0
E00060
E00060
E00060
E00060
E00060
E000E0
6000E0
7000C0
7001C0
380380
1C0780
1F1F00
07FE00
01F000
ENDCHAR
STARTCHAR 0031
ENCODING 49
SWIDTH 360 0
DWIDTH 12 0
BBX 7 23 1 0
BITMAP
0E
7E
FE
C6
06
06
06
06
06
06
06
06
06
06
06
06
06
06
06
06
06
06
06
ENDCHAR
STARTCHAR 0032
ENCODING 50
SWIDTH 600 0
DWIDTH 20 0
BBX 16 23 2 0
BITMAP
07E0
1FF8
3E7C
701E
E00E
400E
0006
0006
000E
000E
001C
0038
0078
00F0
01C0
0380
0700
0E00
3C00
7800
F000
FFFF
FFFF
ENDCHAR
STARTCHAR 0033
ENCODING 51
SWIDTH 600 0
DWIDTH 20 0
BBX 16 23 2 0
BITMAP
7FFE
7FFE
000E
001C
0038
0070
00E0
01C0
0380
0300
07F0
07FC
001E
000E
0007
0007
0007
4007
E006
F00E
7E7C
1FF8
07E0
ENDCHAR
STARTCHAR 0034
ENCODING 52
SWIDTH 660 0
DWIDTH 22 0
BBX 18 23 2 0
BITMAP
000E00
001E00
003E00
007E00
006E00
00EE00
01CE00
038E00
070E00
060E00
0E0E00
1C0E00
380E00
700E00
E00E00
FFFFC0
FFFFC0
FFFFC0
000E00
000E00
000E00
000E00
000E00
ENDCHAR
STARTCHAR 0035
ENCODING 53
SWIDTH 600 0
DWIDTH 20 0
BBX 16 23 2 0
BITMAP
3FFE
3FFE
3000
3000
3000
3000
3000
7000
7000
7FF0
7FFC
301E
000E
0007
0007
0007
0007
0007
6006
F00E
7E7C
3FF8
07E0
ENDCHAR
STARTCHAR 0036
ENCODING 54
SWIDTH 660 0
DWIDTH 22 0
BBX 17 23 2 0
BITMAP
01F800
07FE00
1F1F00
1C0700
380000
700000
700000
600000
E00000
E3F800
EFFE00
FC0F00
F80700
F00380
E00380
E00380
E00380
700380
700300
380700
1E3E00
0FFC00
03F000
ENDCHAR
STARTCHAR 0037
ENCODING 55
SWIDTH 600 0
DWIDTH 20 0
BBX 16 23 2 0
BITMAP
FFFF
FFFF
0006
000E
000C
001C
0018
0038
0038
0070
0070
00E0
00E0
01C0
01C0
0380
0380
0700
0700
0E00
0E00
1C00
1C00
ENDCHAR
STARTCHAR 0038
ENCODING 56
SWIDTH 630 0
DWIDTH 21 0
BBX 17 23 2 0
BITMAP
07E000
1FFC00
3C3E00
700E00
600700
600700
600300
600700
700600
381E00
1FF800
1FF800
3E3E00
700700
E00300
C00380
C00380
C00380
E00380
700700
7C3E00
1FFC00
07F000
ENDCHAR
STARTCHAR 0039
ENCODING 57
SWIDTH 660 0
DWIDTH 22 0
BBX 17 23 2 0
BITMAP
07E000
1FF800
3E3E00
700E00
700700
E00300
E00380
E00380
E00380
E00780
700780
780D80
3FFB80
0FF380
000380
000380
000300
000700
000E00
701E00
7C7C00
3FF000
0FC000
ENDCHAR
STARTCHAR 003A
ENCODING 58
SWIDTH 270 0
DWIDTH 9 0
BBX 3 17 3 0
BITMAP
E0
E0
E0
00
00
00
00
00
00
00
00
00
00
00
E0
E0
E0
ENDCHAR
STARTCHAR 003B
ENCODING 59
SWIDTH 270 0
DWIDTH 9 0
BBX 4 21 2 -4
BITMAP
70
70
70
00
00
00
00
00
00
00
00
00
00
00
70
70
70
30
20
E0
80
ENDCHAR
STARTCHAR 003C
ENCODING 60
SWIDTH 630 0
DWIDTH 21 0
BBX 16 17 2 3
BITMAP
0003
000F
003E
00F8
03E0
0F80
3E00
F800
E000
F800
3E00
0F80
03E0
00F8
003E
000F
0003
ENDCHAR
STARTCHAR 003D
ENCODING 61
SWIDTH 630 0
DWIDTH 21 0
BBX 15 10 3 6
BITMAP
FFFE
FFFE
FFFE
0000
0000
0000
0000
0000
FFFE
FFFE
ENDCHAR
STARTCHAR 003E
ENCODING 62
SWIDTH 630 0
DWIDTH 21 0
BBX 16 17 3 3
BITMAP
C000
F000
7C00
1F00
07C0
01F0
007C
001F
0007
001F
007C
01F0
07C0
1F00
7C00
F000
C000
ENDCHAR
STARTCHAR 003F
ENCODING 63
SWIDTH 540 0
DWIDTH 18 0
BBX 15 23 1 0
BITMAP
07E0
1FF8
7C7C
F01C
400E
000E
000E
000E
000E
001C
003C
03F0
03C0
0300
0300
0300
0300
0000
0000
0000
0780
0780
0780
ENDCHAR
STARTCHAR 0040
ENCODING 64
SWIDTH 990 0
DWIDTH 33 0
BBX 28 29 2 -6
BITMAP
001FC000
00E07800
03000C00
04000300
08000180
100000C0
20000040
201F9020
403FD820
4070F830
80E07810
81C03810
81803010
81803010
83803010
83803010
81807010
81C0F020
C1E1B060
40FF38C0
403E0F80
20000000
30000000
10000000
0C000000
06000200
03800E00
00F87800
000F8000
ENDCHAR
STARTCHAR 0041
ENCODING 65
SWIDTH 780 0
DWIDTH 26 0
BBX 23 23 1 0
BITMAP
003800
003C00
003C00
007E00
006600
00E700
00C700
01C380
018380
038180
0381C0
0700C0
0700E0
060060
0E0070
0FFFF0
1FFFF8
180038
38001C
30001C
70000C
70000E
E00006
ENDCHAR
STARTCHAR 0042
ENCODING 66
SWIDTH 720 0
DWIDTH 24 0
BBX 19 23 3 0
BITMAP
FFF800
FFFE00
E01F00
E00380
E00380
E00180
E00180
E00180
E00380
E00700
FFFE00
FFFE00
FFFF80
E003C0
E001C0
E000E0
E000E0
E000E0
E000C0
E001C0
E00F80
FFFF00
FFFC00
ENDCHAR
STARTCHAR 0043
ENCODING 67
SWIDTH 750 0
DWIDTH 25 0
BBX 21 23 2 0
BITMAP
00FF00
03FFC0
07C7F0
1E00F8
1C0030
380000
700000
700000
600000
E00000
E00000
E00000
E00000
E00000
600000
700000
700000
380000
3C0030
1E00F0
0FC7E0
03FFC0
00FE00
ENDCHAR
STARTCHAR 0044
ENCODING 68
SWIDTH 780 0
DWIDTH 26 0
BBX 20 23 3 0
BITMAP
FFF000
FFFE00
E07F00
E00780
E003C0
E001E0
E000E0
E00070
E00070
E00070
E00030
E00030
E00030
E00070
E00070
E00070
E000E0
E000E0
E001C0
E00780
E07F00
FFFC00
FFF000
ENDCHAR
STARTCHAR 0045
ENCODING 69
SWIDTH 660 0
DWIDTH 22 0
BBX 17 23 3 0
BITMAP
FFFF80
FFFF80
E00000
E00000
E00000
E00000
E00000
E00000
E00000
E00000
FFFE00
FFFE00
FFFE00
E00000
E00000
E00000
E00000
E00000
E00000
E00000
E00000
FFFF80
FFFF80
ENDCHAR
STARTCHAR 0046
ENCODING 70
SWIDTH 660 0
DWIDTH 22 0
BBX 17 23 3 0
BITMAP
FFFF80
FFFF80
E00000
E00000
E00000
E00000
E00000
E00000
E00000
E00000
E00000
FFFE00
FFFE00
E00000
E00000
E00000
E00000
E00000
E00000
E00000
E00000
E00000
E00000
ENDCHAR
STARTCHAR 0047
ENCODING 71
SWIDTH 780 0
DWIDTH 26 0
BBX 21 23 2 0
BITMAP
00FF00
03FFC0
07C7F0
1E0070
1C0020
380000
700000
700000
600000
E00000
E00000
E00FF8
E00FF8
E00018
600018
700018
700018
380018
3C0018
1E0078
0FC3F0
03FFC0
00FE00
ENDCHAR
STARTCHAR 0048
ENCODING 72
SWIDTH 750 0
DWIDTH 25 0
BBX 19 23 3 0
BITMAP
E000E0
E000E0
E000E0
E000E0
E000E0
E000E0
E000E0
E000E0
E000E0
E000E0
FFFFE0
FFFFE0
FFFFE0
E000E0
E000E0
E000E0
E000E0
E000E0
E000E0
E000E0
E000E0
E000E0
E000E0
ENDCHAR
STARTCHAR 0049
ENCODING 73
SWIDTH 300 0
DWIDTH 10 0
BBX 3 23 3 0
BITMAP
E0
E0
E0
E0
E0
E0
E0
E0
E0
E0
E0
E0
E0
E0
E0
E0
E0
E0
E0
E0
E0
E0
E0
ENDCHAR
STARTCHAR 004A
ENCODING 74
SWIDTH 540 0
DWIDTH 18 0
BBX 14 23 1 0
BITMAP
000C
000C
000C
000C
000C
000C
000C
000C
000C
000C
000C
000C
000C
000C
000C
000C
000C
001C
601C
F038
7CF8
3FF0
0FC0
ENDCHAR
STARTCHAR 004B
ENCODING 75
SWIDTH 720 0
DWIDTH 24 0
BBX 19 23 3 0
BITMAP
E001E0
E001C0
E00380
E00700
E00E00
E01C00
E03800
E07000
E0E000
E1C000
E3C000
E7E000
EEE000
FC7000
F83800
F01C00
E01E00
E00E00
E00700
E00380
E003C0
E001E0
E000E0
ENDCHAR
STARTCHAR 004C
ENCODING 76
SWIDTH 630 0
DWIDTH 21 0
BBX 16 23 3 0
BITMAP
E000
E000
E000
E000
E000
E000
E000
E000
E000
E000
E000
E000
E000
E000
E000
E000
E000
E000
E000
E000
E000
FFFF
FFFF
ENDCHAR
STARTCHAR 004D
ENCODING 77
SWIDTH 870 0
DWIDTH 29 0
BBX 22 23 3 0
BITMAP
E0001C
F0001C
F8003C
F8007C
FC006C
FE00EC
EE01CC
E7018C
E3838C
E3870C
E1C60C
E0EE0C
E0FC0C
E0780C
E0380C
E0300C
E0000C
E0000C
E0000C
E0000C
E0000C
E0000C
E0000C
ENDCHAR
STARTCHAR 004E
ENCODING 78
SWIDTH 780 0
DWIDTH 26 0
BBX 20 23 3 0
BITMAP
E00070
F00070
F80070
F80070
FC0070
EE0070
E70070
E78070
E38070
E1C070
E0E070
E07070
E07070
E03870
E01C70
E00E70
E00F70
E00770
E003F0
E001F0
E000F0
E000F0
E00070
ENDCHAR
STARTCHAR 004F
ENCODING 79
SWIDTH 840 0
DWIDTH 28 0
BBX 24 23 2 0
BITMAP
007F00
03FFC0
07C7E0
1E00F0
1C0038
38001C
70001E
70000E
60000E
E00006
E00007
E00007
E00007
E00006
60000E
70000E
70000C
38001C
1C0038
1F00F0
0FC3E0
03FFC0
00FE00
ENDCHAR
STARTCHAR 0050
ENCODING 80
SWIDTH 660 0
DWIDTH 22 0
BBX 17 23 3 0
BITMAP
FFF000
FFFC00
E07F00
E00700
E00380
E00380
E00180
E00180
E00180
E00380
E00380
E00700
E07E00
FFFC00
FFE000
E00000
E00000
E00000
E00000
E00000
E00000
E00000
E00000
ENDCHAR
STARTCHAR 0051
ENCODING 81
SWIDTH 840 0
DWIDTH 28 0
BBX 24 23 2 -1
BITMAP
007F00
03FFC0
07C7E0
1E00F0
1C0038
38001C
70001E
70000E
60000E
E00006
E00007
E00007
E00007
E00006
60030E
70078E
7003DC
3801FC
1C0078
1F00FC
0FC7FE
03FFCF
00FE06
ENDCHAR
STARTCHAR 0052
ENCODING 82
SWIDTH 720 0
DWIDTH 24 0
BBX 19 23 3 0
BITMAP
FFFC00
FFFF00
E01F80
E003C0
E001C0
E001C0
E000C0
E000C0
E000C0
E001C0
E00380
E00F00
FFFE00
FFF000
E03800
E03C00
E01C00
E00E00
E00700
E00780
E00380
E001C0
E000E0
ENDCHAR
STARTCHAR 0053
ENCODING 83
SWIDTH 630 0
DWIDTH 21 0
BBX 17 23 2 0
BITMAP
07F000
1FFC00
3C3F00
700700
700200
600000
600000
700000
700000
3E0000
1FC000
07F800
00FE00
001F00
000780
000380
000380
000380
600380
F00700
7E1E00
1FFC00
07F000
ENDCHAR
STARTCHAR 0054
ENCODING 84
SWIDTH 660 0
DWIDTH 22 0
BBX 18 23 2 0
BITMAP
FFFFC0
FFFFC0
01C000
01C000
01C000
01C000
01C000
01C000
01C000
01C000
01C000
01C000
01C000
01C000
01C000
01C000
01C000
01C000
01C000
01C000
01C000
01C000
01C000
ENDCHAR
STARTCHAR 0055
ENCODING 85
SWIDTH 750 0
DWIDTH 25 0
BBX 19 23 3 0
BITMAP
C000E0
C000E0
C000E0
C000E0
C000E0
C000E0
C000E0
C000E0
C000E0
C000E0
C000E0
C000E0
C000E0
E000E0
E000E0
E000E0
E000E0
7001C0
7001C0
380380
1F3F00
0FFE00
03F800
ENDCHAR
STARTCHAR 0056
ENCODING 86
SWIDTH 750 0
DWIDTH 25 0
BBX 22 23 1 0
BITMAP
E0001C
70001C
700038
380038
380030
180070
1C0060
1C00E0
0E00E0
0E00C0
0701C0
070180
030380
038300
038700
01C700
01C600
00CE00
00EC00
007C00
007800
007800
003800
ENDCHAR
STARTCHAR 0057
ENCODING 87
SWIDTH 1110 0
DWIDTH 37 0
BBX 33 23 2 0
BITMAP
C001800380
E001C00700
E003C00700
6003C00600
7003E00E00
7007E00E00
3806600C00
3806701C00
380E701C00
1C0C301800
1C0C383800
0C1C383800
0E18183000
0E181C7000
06381C7000
07300C6000
07300EE000
03700EC000
03E006C000
03E007C000
01E0078000
01C0038000
01C0038000
ENDCHAR
STARTCHAR 0058
ENCODING 88
SWIDTH 720 0
DWIDTH 24 0
BBX 20 23 2 0
BITMAP
E000E0
7000E0
3801C0
380380
1C0300
0E0700
070E00
071C00
039800
01F800
00F000
00F000
01F000
01B800
039C00
070E00
0E0E00
0E0700
1C0380
3801C0
7001C0
7000E0
E00070
ENDCHAR
STARTCHAR 0059
ENCODING 89
SWIDTH 720 0
DWIDTH 24 0
BBX 21 23 1 0
BITMAP
E00038
700070
380070
3800E0
1C01C0
0E01C0
0E0380
070700
038700
038E00
01DC00
00FC00
00F800
007000
007000
007000
007000
007000
007000
007000
007000
007000
007000
ENDCHAR
STARTCHAR 005A
ENCODING 90
SWIDTH 690 0
DWIDTH 23 0
BBX 19 23 2 0
BITMAP
7FFFE0
7FFFE0
0001C0
000380
000700
000700
000E00
001C00
003800
007000
007000
00E000
01C000
038000
078000
070000
0E0000
1C0000
380000
380000
700000
FFFFE0
FFFFE0
ENDCHAR
STARTCHAR 005B
ENCODING 91
SWIDTH 450 0
DWIDTH 15 0
BBX 9 27 3 -5
BITMAP
FF80
FF80
C000
C000
C000
C000
C000
C000
C000
C000
C000
C000
C000
C000
C000
C000
C000
C000
C000
C000
C000
C000
C000
C000
C000
FF80
FF80
ENDCHAR
STARTCHAR 005C
ENCODING 92
SWIDTH 510 0
DWIDTH 17 0
BBX 17 30 0 -4
BITMAP
E00000
600000
700000
300000
380000
180000
1C0000
0C0000
0C0000
060000
060000
030000
030000
018000
018000
00C000
00C000
006000
006000
003000
003000
001800
001800
000C00
000C00
000600
000600
000300
000300
000180
ENDCHAR
STARTCHAR 005D
ENCODING 93
SWIDTH 450 0
DWIDTH 15 0
BBX 9 27 2 -5
BITMAP
FF80
FF80
0180
0180
0180
0180
0180
0180
0180
0180
0180
0180
0180
0180
0180
0180
0180
0180
0180
0180
0180
0180
0180
0180
0180
FF80
FF80
ENDCHAR
STARTCHAR 005E
ENCODING 94
SWIDTH 510 0
DWIDTH 17 0
BBX 12 7 2 16
BITMAP
0700
0F00
1D80
19C0
30C0
6060
E030
ENDCHAR
STARTCHAR 005F
ENCODING 95
SWIDTH 600 0
DWIDTH 20 0
BBX 20 2 0 -6
BITMAP
FFFFF0
FFFFF0
ENDCHAR
STARTCHAR 0060
ENCODING 96
SWIDTH 510 0
DWIDTH 17 0
BBX 5 4 5 20
BITMAP
60
F0
70
38
ENDCHAR
STARTCHAR 0061
ENCODING 97
SWIDTH 570 0
DWIDTH 19 0
BBX 14 17 2 0
BITMAP
0FC0
7FF0
7878
001C
001C
000C
000C
1FFC
7FFC
E00C
C00C
C00C
C00C
E01C
E03C
7FEC
1F8C
ENDCHAR
STARTCHAR 0062
ENCODING 98
SWIDTH 660 0
DWIDTH 22 0
BBX 17 24 3 0
BITMAP
C00000
C00000
C00000
C00000
C00000
C00000
C00000
C3F000
CFFC00
DE3E00
D80E00
F00700
E00300
E00380
C00380
C00380
C00380
E00380
E00300
E00700
F00E00
DC1E00
CFF800
C3E000
ENDCHAR
STARTCHAR 0063
ENCODING 99
SWIDTH 570 0
DWIDTH 19 0
BBX 15 17 2 0
BITMAP
03F0
0FFC
3E3E
780E
7004
E000
E000
C000
C000
C000
E000
E000
7000
780E
3E1E
1FF8
07E0
ENDCHAR
STARTCHAR 0064
ENCODING 100
SWIDTH 660 0
DWIDTH 22 0
BBX 17 24 2 0
BITMAP
000380
000380
000380
000380
000380
000380
000380
07E380
1FF380
3E3F80
780F80
700780
E00380
E00380
E00380
C00380
C00380
E00380
E00380
700780
700F80
3C1F80
1FF380
07E380
ENDCHAR
STARTCHAR 0065
ENCODING 101
SWIDTH 600 0
DWIDTH 20 0
BBX 16 17 2 0
BITMAP
07E0
1FF8
3C3C
701C
600E
E006
E007
C007
FFFF
C000
E000
E000
7000
7006
3C1E
1FF8
07E0
ENDCHAR
STARTCHAR 0066
ENCODING 102
SWIDTH 360 0
DWIDTH 12 0
BBX 11 24 1 0
BITMAP
03E0
0FE0
1E20
1C00
1800
1800
1800
FFE0
FFE0
1800
1800
1800
1800
1800
1800
1800
1800
1800
1800
1800
1800
1800
1800
1800
ENDCHAR
STARTCHAR 0067
ENCODING 103
SWIDTH 660 0
DWIDTH 22 0
BBX 17 22 2 -6
BITMAP
07E380
1FFB80
3C1F80
700780
600780
E00380
E00380
C00380
E00380
E00380
E00380
700780
780F80
3FFB80
1FF380
038380
000380
000300
400700
780E00
7FFC00
1FF800
ENDCHAR
STARTCHAR 0068
ENCODING 104
SWIDTH 630 0
DWIDTH 21 0
BBX 15 24 3 0
BITMAP
C000
C000
C000
C000
C000
C000
C000
C3E0
CFF8
DC78
F01C
E01C
E00E
C00E
C00E
C00E
C00E
C00E
C00E
C00E
C00E
C00E
C00E
C00E
ENDCHAR
STARTCHAR 0069
ENCODING 105
SWIDTH 270 0
DWIDTH 9 0
BBX 3 23 3 1
BITMAP
E0
E0
00
00
00
00
E0
E0
E0
E0
E0
E0
E0
E0
E0
E0
E0
E0
E0
E0
E0
E0
E0
ENDCHAR
STARTCHAR 006A
ENCODING 106
SWIDTH 270 0
DWIDTH 9 0
BBX 6 28 0 -5
BITMAP
1C
1C
00
00
00
00
1C
1C
1C
1C
1C
1C
1C
1C
1C
1C
1C
1C
1C
1C
1C
1C
1C
1C
1C
18
F8
F0
ENDCHAR
STARTCHAR 006B
ENCODING 107
SWIDTH 570 0
DWIDTH 19 0
BBX 14 24 3 0
BITMAP
C000
C000
C000
C000
C000
C000
C000
C01C
C038
C070
C0E0
C1C0
C380
C700
CF00
DF00
FB80
F1C0
E0E0
C0E0
C070
C038
C01C
C01C
ENDCHAR
STARTCHAR 006C
ENCODING 108
SWIDTH 270 0
DWIDTH 9 0
BBX 3 24 3 0
BITMAP
E0
E0
E0
E0
E0
E0
E0
E0
E0
E0
E0
E0
E0
E0
E0
E0
E0
E0
E0
E0
E0
E0
E0
E0
ENDCHAR
STARTCHAR 006D
ENCODING 109
SWIDTH 960 0
DWIDTH 32 0
BBX 25 17 3 0
BITMAP
C7C0FC00
CFF1FE00
D87B0700
F03E0380
E01C0380
E01C0180
C01C0180
C01C0180
C01C0180
C01C0180
C01C0180
C01C0180
C01C0180
C01C0180
C01C0180
C01C0180
C01C0180
ENDCHAR
STARTCHAR 006E
ENCODING 110
SWIDTH 630 0
DWIDTH 21 0
BBX 15 17 3 0
BITMAP
C7E0
CFF8
D838
F01C
E00C
E00E
C00E
C00E
C00E
C00E
C00E
C00E
C00E
C00E
C00E
C00E
C00E
ENDCHAR
STARTCHAR 006F
ENCODING 111
SWIDTH 660 0
DWIDTH 22 0
BBX 17 17 2 0
BITMAP
03F000
0FFC00
3E3E00
780F00
700700
E00380
E00380
C00180
C00180
C00180
E00180
E00380
700300
780700
3E3E00
1FFC00
03E000
ENDCHAR
STARTCHAR 0070
ENCODING 112
SWIDTH 660 0
DWIDTH 22 0
BBX 17 22 3 -5
BITMAP
C3F000
CFFC00
DC1E00
F00E00
E00700
E00300
C00380
C00380
C00380
C00380
E00380
E00300
F00700
F80E00
DE3E00
CFF800
C3E000
C00000
C00000
C00000
C00000
C00000
ENDCHAR
STARTCHAR 0071
ENCODING 113
SWIDTH 660 0
DWIDTH 22 0
BBX 17 22 2 -5
BITMAP
07E380
1FFB80
3C1F80
700F80
600780
E00380
E00380
C00380
C00380
E00380
E00380
E00380
700780
780F80
3E3B80
1FF380
07C380
000380
000380
000380
000380
000380
ENDCHAR
STARTCHAR 0072
ENCODING 114
SWIDTH 420 0
DWIDTH 14 0
BBX 9 17 3 0
BITMAP
C180
C780
CF80
D800
F000
F000
E000
E000
C000
C000
C000
C000
C000
C000
C000
C000
C000
ENDCHAR
STARTCHAR 0073
ENCODING 115
SWIDTH 510 0
DWIDTH 17 0
BBX 13 17 1 0
BITMAP
0FC0
1FF8
3878
7000
7000
7000
3C00
3F80
0FE0
01F8
0038
0018
0018
6018
F838
3FF0
0FC0
ENDCHAR
STARTCHAR 0074
ENCODING 116
SWIDTH 390 0
DWIDTH 13 0
BBX 11 22 1 1
BITMAP
1800
1800
1800
1800
1800
FFE0
FFE0
1800
1800
1800
1800
1800
1800
1800
1800
1800
1800
1800
1C00
1E20
0FE0
07C0
ENDCHAR
STARTCHAR 0075
ENCODING 117
SWIDTH 630 0
DWIDTH 21 0
BBX 14 17 3 0
BITMAP
C00C
C00C
C00C
C00C
C00C
C00C
C00C
C00C
C00C
C00C
C00C
C00C
E01C
E03C
786C
3FCC
1F8C
ENDCHAR
STARTCHAR 0076
ENCODING 118
SWIDTH 600 0
DWIDTH 20 0
BBX 17 17 1 0
BITMAP
E00380
700300
700700
300700
380E00
380E00
1C0C00
1C1C00
0C1800
0E3800
063000
073000
037000
036000
03E000
01C000
01C000
ENDCHAR
STARTCHAR 0077
ENCODING 119
SWIDTH 870 0
DWIDTH 29 0
BBX 25 17 2 0
BITMAP
C0180380
E01C0300
E03C0700
603C0700
703E0600
70660E00
30660C00
38670C00
38C31C00
18C31800
1CC39800
1D81B800
0D81B000
0F81F000
0F00F000
0700E000
0700E000
ENDCHAR
STARTCHAR 0078
ENCODING 120
SWIDTH 570 0
DWIDTH 19 0
BBX 15 17 2 0
BITMAP
E00E
701C
7018
3838
1C70
0EE0
0FC0
0780
0380
07C0
0EE0
0CE0
1870
3838
701C
E01C
C00E
ENDCHAR
STARTCHAR 0079
ENCODING 121
SWIDTH 600 0
DWIDTH 20 0
BBX 17 22 1 -6
BITMAP
E00380
700380
700300
300700
380600
180E00
1C0E00
1C0C00
0E1C00
0E1800
063800
073000
033000
03F000
01E000
01E000
00C000
00C000
01C000
038000
7F0000
7E0000
ENDCHAR
STARTCHAR 007A
ENCODING 122
SWIDTH 570 0
DWIDTH 19 0
BBX 14 17 2 0
BITMAP
FFFC
FFFC
001C
0038
0070
00E0
01C0
0180
0380
0700
0E00
1C00
3800
7000
7000
FFFC
FFFC
ENDCHAR
STARTCHAR 007B
ENCODING 123
SWIDTH 480 0
DWIDTH 16 0
BBX 12 28 2 -4
BITMAP
00F0
03E0
0700
0600
0600
0600
0600
0600
0600
0600
0E00
0C00
7C00
F000
F800
0C00
0E00
0E00
0600
0600
0600
0600
0600
0600
0700
03E0
00F0
0010
ENDCHAR
STARTCHAR 007C
ENCODING 124
SWIDTH 300 0
DWIDTH 10 0
BBX 2 30 4 -4
BITMAP
C0
C0
C0
C0
C0
C0
C0
C0
C0
C0
C0
C0
C0
C0
C0
C0
C0
C0
C0
C0
C0
C0
C0
C0
C0
C0
C0
C0
C0
C0
ENDCHAR
STARTCHAR 007D
ENCODING 125
SWIDTH 480 0
DWIDTH 16 0
BBX 12 28 2 -4
BITMAP
F000
7C00
1C00
0E00
0600
0600
0600
0600
0600
0600
0700
0700
03E0
00F0
03F0
0300
0700
0600
0600
0600
0600
0600
0600
0E00
0C00
7C00
F000
8000
ENDCHAR
STARTCHAR 007E
ENCODING 126
SWIDTH 480 0
DWIDTH 16 0
BBX 11 4 2 7
BITMAP
3860
7EE0
7FC0
C380
ENDCHAR
STARTCHAR 00A0
ENCODING 160
SWIDTH 300 0
DWIDTH 10 0
BBX 0 0 0 0
BITMAP
ENDCHAR
STARTCHAR 00A1
ENCODING 161
SWIDTH 270 0
DWIDTH 9 0
BBX 3 23 3 0
BITMAP
E0
E0
E0
00
00
00
00
40
40
40
40
C0
C0
E0
E0
E0
E0
E0
E0
E0
E0
E0
E0
ENDCHAR
STARTCHAR 00A2
ENCODING 162
SWIDTH 570 0
DWIDTH 19 0
BBX 15 23 2 0
BITMAP
0060
0060
0060
07F8
1FFC
3CDE
70C4
70C0
E0C0
E0C0
E080
C180
E180
E180
E180
7100
3B06
3F1E
0FFC
07F0
0700
0600
0600
ENDCHAR
STARTCHAR 00A3
ENCODING 163
SWIDTH 630 0
DWIDTH 21 0
BBX 17 23 2 0
BITMAP
01F800
03FE00
079F00
0E0380
1C0100
1C0000
1C0000
1C0000
1C0000
1C0000
1C0000
FFFE00
FFFE00
1C0000
1C0000
1C0000
1C0000
1C0000
1C0000
1C0000
1C0000
FFFF80
FFFF80
ENDCHAR
STARTCHAR 00A4
ENCODING 164
SWIDTH 720 0
DWIDTH 24 0
BBX 20 23 2 0
BITMAP
007E00
01FF80
03E3C0
0700E0
0E0070
0E0000
1C0000
1C0000
FFFC00
FFFC00
380000
380000
380000
FFFC00
FFFC00
1C0000
1C0000
0E0020
0E0070
0700E0
03E3C0
01FF80
007E00
ENDCHAR
STARTCHAR 00A5
ENCODING 165
SWIDTH 690 0
DWIDTH 23 0
BBX 20 23 1 0
BITMAP
E00070
700070
3800E0
3801C0
1C0180
0E0380
0E0700
070600
030E00
039C00
01D800
00F800
3FFFC0
3FFFC0
006000
006000
006000
3FFFC0
3FFFC0
006000
006000
006000
006000
ENDCHAR
STARTCHAR 00A7
ENCODING 167
SWIDTH 630 0
DWIDTH 21 0
BBX 17 23 2 0
BITMAP
07E000
1FF800
3C3E00
380E00
380000
380000
1E0000
0FE000
3FFC00
601F00
E00700
E00380
F00380
7C0700
1FFE00
03F000
007C00
000E00
000E00
300E00
3E1C00
1FF800
07F000
ENDCHAR
STARTCHAR 00A8
ENCODING 168
SWIDTH 510 0
DWIDTH 17 0
BBX 9 3 4 19
BITMAP
E380
E380
E380
ENDCHAR
STARTCHAR 00A9
ENCODING 169
SWIDTH 840 0
DWIDTH 28 0
BBX 23 23 2 0
BITMAP
00FE00
0301C0
0C0060
180010
300008
203C0C
40FF04
418302
830002
830002
830002
820002
830002
830002
838102
C1C702
40FE04
60000C
300008
180010
0C0060
030180
00FE00
ENDCHAR
STARTCHAR 00AA
ENCODING 170
SWIDTH 390 0
DWIDTH 13 0
BBX 8 14 2 9
BITMAP
3E
7F
03
01
7F
C1
C1
C3
7D
31
00
00
FF
FF
ENDCHAR
STARTCHAR 00AB
ENCODING 171
SWIDTH 540 0
DWIDTH 18 0
BBX 14 13 2 2
BITMAP
0E1C
1C18
3838
3870
70E0
E1C0
C1C0
E1C0
70E0
3870
3838
1C38
0E1C
ENDCHAR
STARTCHAR 00AE
ENCODING 174
SWIDTH 840 0
DWIDTH 28 0
BBX 23 23 2 0
BITMAP
00FE00
0301C0
0C0060
180010
300008
21FC0C
41FF04
418382
818182
818182
818382
81FF02
81FC02
818E02
818702
C18302
418184
60000C
300008
180010
0C0060
030180
00FE00
ENDCHAR
STARTCHAR 00AF
ENCODING 175
SWIDTH 510 0
DWIDTH 17 0
BBX 10 2 3 19
BITMAP
FFC0
FFC0
ENDCHAR
STARTCHAR 00B0
ENCODING 176
SWIDTH 450 0
DWIDTH 15 0
BBX 11 10 2 12
BITMAP
1F00
3F80
60C0
60C0
C060
C060
60C0
60C0
3F80
1F00
ENDCHAR
STARTCHAR 00B1
ENCODING 177
SWIDTH 600 0
DWIDTH 20 0
BBX 16 23 2 0
BITMAP
07E0
1FF8
7C7C
F01E
E00E
0006
0006
000E
000E
001C
07F8
07F0
01FC
001E
0006
0007
0007
0007
C007
F00E
7E7C
3FF8
07E0
ENDCHAR
STARTCHAR 00B4
ENCODING 180
SWIDTH 510 0
DWIDTH 17 0
BBX 4 4 7 20
BITMAP
70
70
E0
C0
ENDCHAR
STARTCHAR 00B5
ENCODING 181
SWIDTH 840 0
DWIDTH 28 0
BBX 25 26 2 -3
BITMAP
007F0000
03FFC000
07C7E000
1E00F000
1C003800
38001C00
70001E00
70000E00
60000E00
E0000600
E0000700
E0000700
E0000700
E0000600
60000E00
70000E00
70000C00
38001C00
1C003800
1F00F000
0FC3E000
03FFF800
00FE7C00
00001E00
00000F00
00000780
ENDCHAR
STARTCHAR 00B6
ENCODING 182
SWIDTH 510 0
DWIDTH 17 0
BBX 12 23 2 0
BITMAP
07F0
1FF0
7FF0
7FF0
FFF0
FFF0
FFF0
FFF0
FFF0
FFF0
FFF0
7FF0
3FF0
0FF0
0070
0070
0070
0070
0070
0070
0070
0070
0070
ENDCHAR
STARTCHAR 00B7
ENCODING 183
SWIDTH 240 0
DWIDTH 8 0
BBX 3 4 3 8
BITMAP
E0
E0
E0
E0
ENDCHAR
STARTCHAR 00B8
ENCODING 184
SWIDTH 510 0
DWIDTH 17 0
BBX 4 5 5 -5
BITMAP
30
30
70
E0
60
ENDCHAR
STARTCHAR 00BA
ENCODING 186
SWIDTH 390 0
DWIDTH 13 0
BBX 9 14 2 9
BITMAP
3E00
7F00
C380
C180
8180
8180
C180
E300
7F00
1C00
0000
0000
FF80
FF80
ENDCHAR
STARTCHAR 00BB
ENCODING 187
SWIDTH 540 0
DWIDTH 18 0
BBX 14 13 2 2
BITMAP
E1C0
60E0
7070
3870
1C38
0C1C
0E0C
0C1C
1C38
3870
7060
60E0
E1C0
ENDCHAR
STARTCHAR 00BF
ENCODING 191
SWIDTH 540 0
DWIDTH 18 0
BBX 14 23 2 0
BITMAP
0380
0380
0380
0000
0000
0000
0100
0100
0380
0380
0F80
3F80
7800
E000
E000
C000
C000
C000
E00C
F01C
7C78
3FF0
0FC0
ENDCHAR
STARTCHAR 00C0
ENCODING 192
SWIDTH 780 0
DWIDTH 26 0
BBX 23 29 1 1
BITMAP
01E000
00E000
007000
003000
000000
000000
003800
003C00
003C00
007E00
006600
00E700
00C700
01C380
018380
038180
0381C0
0700C0
0700E0
060060
0E0070
0FFFF0
1FFFF8
180038
38001C
30001C
70000C
70000E
E00006
ENDCHAR
STARTCHAR 00C1
ENCODING 193
SWIDTH 780 0
DWIDTH 26 0
BBX 23 29 1 1
BITMAP
000700
000700
000E00
001C00
000000
000000
003800
003C00
003C00
007E00
006600
00E700
00C700
01C380
018380
038180
0381C0
0700C0
0700E0
060060
0E0070
0FFFF0
1FFFF8
180038
38001C
30001C
70000C
70000E
E00006
ENDCHAR
STARTCHAR 00C2
ENCODING 194
SWIDTH 780 0
DWIDTH 26 0
BBX 23 29 1 1
BITMAP
003800
003C00
006E00
00C700
000000
000000
003800
003C00
003C00
007E00
006600
00E700
00C700
01C380
018380
038180
0381C0
0700C0
0700E0
060060
0E0070
0FFFF0
1FFFF8
180038
38001C
30001C
70000C
70000E
E00006
ENDCHAR
STARTCHAR 00C3
ENCODING 195
SWIDTH 780 0
DWIDTH 26 0
BBX 23 29 1 0
BITMAP
000080
00F980
01FF80
018F00
000000
000000
003800
003C00
003C00
007E00
006600
00E700
00C700
01C380
018380
038180
0381C0
0700C0
0700E0
060060
0E0070
0FFFF0
1FFFF8
180038
38001C
30001C
70000C
70000E
E00006
ENDCHAR
STARTCHAR 00C4
ENCODING 196
SWIDTH 780 0
DWIDTH 26 0
BBX 23 28 1 0
BITMAP
00E700
00E700
00E700
000000
000000
003800
003C00
003C00
007E00
006600
00E700
00C700
01C380
018380
038180
0381C0
0700C0
0700E0
060060
0E0070
0FFFF0
1FFFF8
180038
38001C
30001C
70000C
70000E
E00006
ENDCHAR
STARTCHAR 00C5
ENCODING 197
SWIDTH 780 0
DWIDTH 26 0
BBX 23 28 1 1
BITMAP
003C00
006600
004200
004200
006600
003C00
003C00
003C00
007E00
006600
00E700
00C700
01C380
018380
038180
0381C0
0700C0
0700E0
060060
0E0070
0FFFF0
1FFFF8
180038
38001C
30001C
70000C
70000E
E00006
ENDCHAR
STARTCHAR 00C6
ENCODING 198
SWIDTH 1050 0
DWIDTH 35 0
BBX 31 23 1 0
BITMAP
0007FFFE
000FFFFE
000DC000
001DC000
0039C000
0031C000
0071C000
0061C000
00E1C000
01C1C000
0181FFFC
0381FFFC
0301FFFC
0701C000
0601C000
0FFFC000
1FFFC000
1801C000
3801C000
3001C000
7001C000
E001FFFE
E001FFFE
ENDCHAR
STARTCHAR 00C7
ENCODING 199
SWIDTH 750 0
DWIDTH 25 0
BBX 21 27 2 -5
BITMAP
00FF00
03FFC0
07C7F0
1E00F8
1C0030
380000
700000
700000
600000
E00000
E00000
E00000
E00000
E00000
600000
700000
700000
380000
3C0030
1E0078
0FC3E0
03FFC0
00FF00
003000
007000
00E000
00E000
ENDCHAR
STARTCHAR 00C8
ENCODING 200
SWIDTH 660 0
DWIDTH 22 0
BBX 17 30 3 0
BITMAP
020000
0F0000
038000
018000
00C000
000000
000000
FFFF80
FFFF80
E00000
E00000
E00000
E00000
E00000
E00000
E00000
E00000
FFFE00
FFFE00
FFFE00
E00000
E00000
E00000
E00000
E00000
E00000
E00000
E00000
FFFF80
FFFF80
ENDCHAR
STARTCHAR 00C9
ENCODING 201
SWIDTH 660 0
DWIDTH 22 0
BBX 17 29 3 1
BITMAP
007000
00E000
00C000
018000
000000
000000
FFFF80
FFFF80
E00000
E00000
E00000
E00000
E00000
E00000
E00000
E00000
FFFE00
FFFE00
FFFE00
E00000
E00000
E00000
E00000
E00000
E00000
E00000
E00000
FFFF80
FFFF80
ENDCHAR
STARTCHAR 00CA
ENCODING 202
SWIDTH 660 0
DWIDTH 22 0
BBX 17 29 3 1
BITMAP
01C000
03E000
077000
0C3800
000000
000000
FFFF80
FFFF80
E00000
E00000
E00000
E00000
E00000
E00000
E00000
E00000
FFFE00
FFFE00
FFFE00
E00000
E00000
E00000
E00000
E00000
E00000
E00000
E00000
FFFF80
FFFF80
ENDCHAR
STARTCHAR 00CB
ENCODING 203
SWIDTH 660 0
DWIDTH 22 0
BBX 17 28 3 1
BITMAP
0E3800
0E3800
0E3800
000000
000000
FFFF80
FFFF80
E00000
E00000
E00000
E00000
E00000
E00000
E00000
E00000
FFFE00
FFFE00
FFFE00
E00000
E00000
E00000
E00000
E00000
E00000
E00000
E00000
FFFF80
FFFF80
ENDCHAR
STARTCHAR 00CC
ENCODING 204
SWIDTH 300 0
DWIDTH 10 0
BBX 6 30 0 0
BITMAP
20
F0
70
38
18
00
00
1C
1C
1C
1C
1C
1C
1C
1C
1C
1C
1C
1C
1C
1C
1C
1C
1C
1C
1C
1C
1C
1C
1C
ENDCHAR
STARTCHAR 00CD
ENCODING 205
SWIDTH 300 0
DWIDTH 10 0
BBX 6 29 3 1
BITMAP
1C
38
30
60
00
00
E0
E0
E0
E0
E0
E0
E0
E0
E0
E0
E0
E0
E0
E0
E0
E0
E0
E0
E0
E0
E0
E0
E0
ENDCHAR
STARTCHAR 00CE
ENCODING 206
SWIDTH 300 0
DWIDTH 10 0
BBX 8 29 1 1
BITMAP
3C
7C
E6
C3
00
00
38
38
38
38
38
38
38
38
38
38
38
38
38
38
38
38
38
38
38
38
38
38
38
ENDCHAR
STARTCHAR 00CF
ENCODING 207
SWIDTH 300 0
DWIDTH 10 0
BBX 9 28 0 1
BITMAP
E380
E380
E380
0000
0000
1C00
1C00
1C00
1C00
1C00
1C00
1C00
1C00
1C00
1C00
1C00
1C00
1C00
1C00
1C00
1C00
1C00
1C00
1C00
1C00
1C00
1C00
1C00
ENDCHAR
STARTCHAR 00D0
ENCODING 208
SWIDTH 810 0
DWIDTH 27 0
BBX 22 23 2 0
BITMAP
3FFC00
3FFF80
381FC0
3801E0
3800F0
380078
380038
38001C
38001C
38001C
FFF00C
FFF00C
FFF00C
38001C
38001C
38001C
380038
380038
380070
3801E0
381FC0
3FFF00
3FFC00
ENDCHAR
STARTCHAR 00D1
ENCODING 209
SWIDTH 780 0
DWIDTH 26 0
BBX 20 29 3 0
BITMAP
010200
03E600
07FE00
043C00
000000
000000
E00070
F00070
F80070
F80070
FC0070
EE0070
E70070
E78070
E38070
E1C070
E0E070
E07070
E07070
E03870
E01C70
E00E70
E00F70
E00770
E003F0
E001F0
E000F0
E000F0
E00070
ENDCHAR
STARTCHAR 00D2
ENCODING 210
SWIDTH 840 0
DWIDTH 28 0
BBX 24 29 2 1
BITMAP
00C000
00E000
007000
003000
000000
000000
007F00
03FFC0
07C7E0
1E00F0
1C0038
38001C
70001E
70000E
60000E
E00006
E00007
E00007
E00007
E00006
60000E
70000E
70000C
38001C
1C0038
1F00F0
0FC3E0
03FFC0
00FE00
ENDCHAR
STARTCHAR 00D3
ENCODING 211
SWIDTH 840 0
DWIDTH 28 0
BBX 24 29 2 1
BITMAP
000300
000700
000E00
000C00
000000
000000
007F00
03FFC0
07C7E0
1E00F0
1C0038
38001C
70001E
70000E
60000E
E00006
E00007
E00007
E00007
E00006
60000E
70000E
70000C
38001C
1C0038
1F00F0
0FC3E0
03FFC0
00FE00
ENDCHAR
STARTCHAR 00D4
ENCODING 212
SWIDTH 840 0
DWIDTH 28 0
BBX 24 29 2 0
BITMAP
003800
003C00
006E00
00C700
000000
000000
007F00
03FFC0
07C7E0
1E00F0
1C0038
38001C
70001E
70000E
60000E
E00006
E00007
E00007
E00007
E00006
60000E
70000E
70000C
38001C
1C0038
1F00F0
0FC3E0
03FFC0
00FE00
ENDCHAR
STARTCHAR 00D5
ENCODING 213
SWIDTH 840 0
DWIDTH 28 0
BBX 24 28 2 1
BITMAP
00F180
01FF80
019F00
010000
000000
007F00
03FFC0
07C7E0
1E00F0
1C0038
38001C
70001E
70000E
60000E
E00006
E00007
E00007
E00007
E00006
60000E
70000E
70000C
38001C
1C0038
1F00F0
0FC3E0
03FFC0
00FE00
ENDCHAR
STARTCHAR 00D6
ENCODING 214
SWIDTH 840 0
DWIDTH 28 0
BBX 24 28 2 0
BITMAP
00C700
00C700
00C700
000000
000000
007F00
03FFC0
07C7E0
1E00F0
1C0038
38001C
70001E
70000E
60000E
E00006
E00007
E00007
E00007
E00006
60000E
70000E
70000C
38001C
1C0038
1F00F0
0FC3E0
03FFC0
00FE00
ENDCHAR
STARTCHAR 00D8
ENCODING 216
SWIDTH 840 0
DWIDTH 28 0
BBX 24 23 2 0
BITMAP
007F06
03FFCC
0783FC
1E0078
1C0078
3800FC
7001CE
70038E
60070E
E00E06
E01C07
E01807
E03007
E06006
60C00E
71C00E
73800C
3F001C
3E0038
1E0070
3F81E0
73FFC0
E0FE00
ENDCHAR
STARTCHAR 00D9
ENCODING 217
SWIDTH 750 0
DWIDTH 25 0
BBX 19 30 3 0
BITMAP
010000
070000
038000
01C000
00C000
000000
000000
C000E0
C000E0
C000E0
C000E0
C000E0
C000E0
C000E0
C000E0
C000E0
C000E0
C000E0
C000E0
C000E0
E000E0
E000E0
E000E0
E000E0
7001C0
7001C0
380380
1F3F00
0FFE00
03F800
ENDCHAR
STARTCHAR 00DA
ENCODING 218
SWIDTH 750 0
DWIDTH 25 0
BBX 19 30 3 0
BITMAP
001000
001C00
003800
007000
006000
000000
000000
C000E0
C000E0
C000E0
C000E0
C000E0
C000E0
C000E0
C000E0
C000E0
C000E0
C000E0
C000E0
C000E0
E000E0
E000E0
E000E0
E000E0
7001C0
7001C0
380380
1F3F00
0FFE00
03F800
ENDCHAR
STARTCHAR 00DB
ENCODING 219
SWIDTH 750 0
DWIDTH 25 0
BBX 19 29 3 1
BITMAP
00E000
01F000
03B800
071C00
000000
000000
C000E0
C000E0
C000E0
C000E0
C000E0
C000E0
C000E0
C000E0
C000E0
C000E0
C000E0
C000E0
C000E0
E000E0
E000E0
E000E0
E000E0
7001C0
7001C0
380380
1F3F00
0FFE00
03F800
ENDCHAR
STARTCHAR 00DC
ENCODING 220
SWIDTH 750 0
DWIDTH 25 0
BBX 19 28 3 1
BITMAP
071C00
071C00
071C00
000000
000000
C000E0
C000E0
C000E0
C000E0
C000E0
C000E0
C000E0
C000E0
C000E0
C000E0
C000E0
C000E0
C000E0
E000E0
E000E0
E000E0
E000E0
7001C0
7001C0
380380
1F3F00
0FFE00
03F800
ENDCHAR
STARTCHAR 00DD
ENCODING 221
SWIDTH 720 0
DWIDTH 24 0
BBX 21 29 1 1
BITMAP
000E00
001E00
001800
003000
000000
000000
E00038
700070
380070
3800E0
1C01C0
0E01C0
0E0380
070700
038700
038E00
01DC00
00FC00
00F800
007000
007000
007000
007000
007000
007000
007000
007000
007000
007000
ENDCHAR
STARTCHAR 00DE
ENCODING 222
SWIDTH 660 0
DWIDTH 22 0
BBX 17 23 3 0
BITMAP
E00000
E00000
E00000
E00000
FFF000
FFFE00
E03F00
E00700
E00380
E00380
E00180
E00180
E00180
E00380
E00380
E00F00
FFFE00
FFFC00
FFE000
E00000
E00000
E00000
E00000
ENDCHAR
STARTCHAR 00DF
ENCODING 223
SWIDTH 630 0
DWIDTH 21 0
BBX 15 24 3 1
BITMAP
0FE0
3FF0
7878
701C
E01C
E01C
C01C
C01C
C018
C038
C0E0
C1C0
C1F0
C078
C01C
C00E
C006
C006
C006
C00E
C00E
C03C
C1F8
C1C0
ENDCHAR
STARTCHAR 00E0
ENCODING 224
SWIDTH 570 0
DWIDTH 19 0
BBX 14 24 2 1
BITMAP
0C00
1C00
0E00
0700
0300
0000
0000
0FC0
7FF0
7878
001C
001C
000C
000C
1FFC
7FFC
E00C
C00C
C00C
C00C
E01C
E03C
7FEC
1F8C
ENDCHAR
STARTCHAR 00E1
ENCODING 225
SWIDTH 570 0
DWIDTH 19 0
BBX 14 24 2 1
BITMAP
0040
00E0
00C0
0180
0300
0000
0000
0FC0
7FF0
7878
001C
001C
000C
000C
1FFC
7FFC
E00C
C00C
C00C
C00C
E01C
E03C
7FEC
1F8C
ENDCHAR
STARTCHAR 00E2
ENCODING 226
SWIDTH 570 0
DWIDTH 19 0
BBX 14 24 2 0
BITMAP
0380
07C0
07C0
0C60
1830
0000
0000
0FC0
7FF0
7878
001C
001C
000C
000C
1FFC
7FFC
E00C
C00C
C00C
C00C
E01C
E03C
7FEC
1F8C
ENDCHAR
STARTCHAR 00E3
ENCODING 227
SWIDTH 570 0
DWIDTH 19 0
BBX 14 23 2 1
BITMAP
0E18
1FF0
1BF0
3060
0000
0000
0FC0
7FF0
7878
001C
001C
000C
000C
1FFC
7FFC
E00C
C00C
C00C
C00C
E01C
E03C
7FEC
1F8C
ENDCHAR
STARTCHAR 00E4
ENCODING 228
SWIDTH 570 0
DWIDTH 19 0
BBX 14 22 2 1
BITMAP
1C70
1C70
1C70
0000
0000
0FC0
7FF0
7878
001C
001C
000C
000C
1FFC
7FFC
E00C
C00C
C00C
C00C
E01C
E03C
7FEC
1F8C
ENDCHAR
STARTCHAR 00E5
ENCODING 229
SWIDTH 570 0
DWIDTH 19 0
BBX 14 26 2 0
BITMAP
0380
06C0
0C60
0C20
0C60
06C0
0380
0000
0000
0FC0
7FF0
7878
001C
001C
000C
000C
1FFC
7FFC
E00C
C00C
C00C
C00C
E01C
E03C
7FEC
1F8C
ENDCHAR
STARTCHAR 00E6
ENCODING 230
SWIDTH 960 0
DWIDTH 32 0
BBX 28 17 2 0
BITMAP
0FC07E00
7FF1FF00
707B83C0
001F01C0
001E00E0
000E0060
000C0060
3FFC0070
787FFFF0
E00C0000
C00C0000
C00E0000
C00E0000
E01F00C0
F073C3C0
7FE1FF80
1F807E00
ENDCHAR
STARTCHAR 00E7
ENCODING 231
SWIDTH 570 0
DWIDTH 19 0
BBX 15 22 2 -5
BITMAP
03F0
0FFC
3E3E
380E
7004
E000
E000
C000
C000
C000
E000
E000
7000
7806
3C1E
1FFC
07F0
0380
0300
0700
0E00
0200
ENDCHAR
STARTCHAR 00E8
ENCODING 232
SWIDTH 600 0
DWIDTH 20 0
BBX 16 24 2 0
BITMAP
0400
0E00
0700
0300
0180
0000
0000
07E0
1FF8
3C3C
701C
600E
E006
E007
C007
FFFF
C000
E000
E000
7000
7006
3C1E
1FF8
07E0
ENDCHAR
STARTCHAR 00E9
ENCODING 233
SWIDTH 600 0
DWIDTH 20 0
BBX 16 24 2 0
BITMAP
0040
00F0
00E0
01C0
0380
0000
0000
07E0
1FF8
3C3C
701C
600E
E006
E007
C007
FFFF
C000
E000
E000
7000
7006
3C1E
1FF8
07E0
ENDCHAR
STARTCHAR 00EA
ENCODING 234
SWIDTH 600 0
DWIDTH 20 0
BBX 16 23 2 1
BITMAP
03C0
07E0
0E60
1C30
0000
0000
07E0
1FF8
3C3C
701C
600E
E006
E007
C007
FFFF
C000
E000
E000
7000
7006
3C1E
1FF8
07E0
ENDCHAR
STARTCHAR 00EB
ENCODING 235
SWIDTH 600 0
DWIDTH 20 0
BBX 16 22 2 1
BITMAP
1C70
1C70
1C70
0000
0000
07E0
1FF8
3C3C
701C
600E
E006
E007
C007
FFFF
C000
E000
E000
7000
7006
3C1E
1FF8
07E0
ENDCHAR
STARTCHAR 00EC
ENCODING 236
SWIDTH 270 0
DWIDTH 9 0
BBX 6 24 0 1
BITMAP
60
E0
70
38
00
00
00
1C
1C
1C
1C
1C
1C
1C
1C
1C
1C
1C
1C
1C
1C
1C
1C
1C
ENDCHAR
STARTCHAR 00ED
ENCODING 237
SWIDTH 270 0
DWIDTH 9 0
BBX 5 24 3 1
BITMAP
18
38
30
60
00
00
00
E0
E0
E0
E0
E0
E0
E0
E0
E0
E0
E0
E0
E0
E0
E0
E0
E0
ENDCHAR
STARTCHAR 00EE
ENCODING 238
SWIDTH 270 0
DWIDTH 9 0
BBX 8 24 0 0
BITMAP
1C
3C
7E
E3
00
00
00
1C
1C
1C
1C
1C
1C
1C
1C
1C
1C
1C
1C
1C
1C
1C
1C
1C
ENDCHAR
STARTCHAR 00EF
ENCODING 239
SWIDTH 270 0
DWIDTH 9 0
BBX 9 23 0 0
BITMAP
E380
E380
E380
0000
0000
0000
1C00
1C00
1C00
1C00
1C00
1C00
1C00
1C00
1C00
1C00
1C00
1C00
1C00
1C00
1C00
1C00
1C00
ENDCHAR
STARTCHAR 00F0
ENCODING 240
SWIDTH 630 0
DWIDTH 21 0
BBX 17 24 2 1
BITMAP
039800
01FC00
01E000
07E000
1E7000
083800
003800
001C00
07EE00
1FFE00
381F00
700F00
E00780
E00380
C00380
C00380
C00380
E00380
E00300
700700
780E00
3E3C00
1FF800
07E000
ENDCHAR
STARTCHAR 00F1
ENCODING 241
SWIDTH 630 0
DWIDTH 21 0
BBX 15 23 3 1
BITMAP
1E10
1FF0
3BF0
30E0
0000
0000
C7E0
CFF8
D838
F01C
E00C
E00E
C00E
C00E
C00E
C00E
C00E
C00E
C00E
C00E
C00E
C00E
C00E
ENDCHAR
STARTCHAR 00F2
ENCODING 242
SWIDTH 660 0
DWIDTH 22 0
BBX 17 24 2 0
BITMAP
020000
0E0000
070000
038000
018000
000000
000000
03F000
0FFC00
3E3E00
780F00
700700
E00380
E00380
C00180
C00180
C00180
E00180
E00380
700300
780700
3E3E00
1FFC00
03E000
ENDCHAR
STARTCHAR 00F3
ENCODING 243
SWIDTH 660 0
DWIDTH 22 0
BBX 17 24 2 0
BITMAP
003000
003800
007000
00E000
00C000
000000
000000
03F000
0FFC00
3E3E00
780F00
700700
E00380
E00380
C00180
C00180
C00180
E00180
E00380
700300
780700
3E3E00
1FFC00
03E000
ENDCHAR
STARTCHAR 00F4
ENCODING 244
SWIDTH 660 0
DWIDTH 22 0
BBX 17 23 2 1
BITMAP
01C000
03E000
077000
0C1800
000000
000000
03F000
0FFC00
3E3E00
780F00
700700
E00380
E00380
C00180
C00180
C00180
E00180
E00380
700300
780700
3E3E00
1FFC00
03E000
ENDCHAR
STARTCHAR 00F5
ENCODING 245
SWIDTH 660 0
DWIDTH 22 0
BBX 17 23 2 1
BITMAP
070C00
0FF800
0DF800
183000
000000
000000
03F000
0FFC00
3E3E00
780F00
700700
E00380
E00380
C00180
C00180
C00180
E00180
E00380
700300
780700
3E3E00
1FFC00
03E000
ENDCHAR
STARTCHAR 00F6
ENCODING 246
SWIDTH 660 0
DWIDTH 22 0
BBX 17 22 2 1
BITMAP
0E3800
0E3800
0E3800
000000
000000
03F000
0FFC00
3E3E00
780F00
700700
E00380
E00380
C00180
C00180
C00180
E00180
E00380
700300
780700
3E3E00
1FFC00
03E000
ENDCHAR
STARTCHAR 00F8
ENCODING 248
SWIDTH 660 0
DWIDTH 22 0
BBX 17 17 2 0
BITMAP
03F180
0FFF00
3C1F00
300F00
701F00
E03B80
E07180
C0E180
C1C180
C38180
E70180
EE0380
7C0300
780700
3C1E00
7FFC00
C7E000
ENDCHAR
STARTCHAR 00F9
ENCODING 249
SWIDTH 630 0
DWIDTH 21 0
BBX 14 24 3 1
BITMAP
0C00
1C00
0E00
0700
0300
0000
0000
C00C
C00C
C00C
C00C
C00C
C00C
C00C
C00C
C00C
C00C
C00C
C00C
E01C
E03C
786C
3FCC
1F8C
ENDCHAR
STARTCHAR 00FA
ENCODING 250
SWIDTH 630 0
DWIDTH 21 0
BBX 14 24 3 1
BITMAP
00C0
00E0
01C0
0380
0300
0000
0000
C00C
C00C
C00C
C00C
C00C
C00C
C00C
C00C
C00C
C00C
C00C
C00C
E01C
E03C
786C
3FCC
1F8C
ENDCHAR
STARTCHAR 00FB
ENCODING 251
SWIDTH 630 0
DWIDTH 21 0
BBX 14 24 3 0
BITMAP
0380
0780
0FC0
1CE0
0000
0000
0000
C00C
C00C
C00C
C00C
C00C
C00C
C00C
C00C
C00C
C00C
C00C
C00C
E01C
E03C
786C
3FCC
1F8C
ENDCHAR
STARTCHAR 00FC
ENCODING 252
SWIDTH 630 0
DWIDTH 21 0
BBX 14 23 3 0
BITMAP
1CE0
1CE0
1CE0
0000
0000
0000
C00C
C00C
C00C
C00C
C00C
C00C
C00C
C00C
C00C
C00C
C00C
C00C
E01C
E03C
786C
3FCC
1F8C
ENDCHAR
STARTCHAR 00FD
ENCODING 253
SWIDTH 600 0
DWIDTH 20 0
BBX 17 29 1 -5
BITMAP
003000
003800
007000
00E000
00C000
000000
000000
E00380
700380
700300
300700
380600
180E00
1C0E00
1C0C00
0E1C00
0E1800
063800
073000
033000
03F000
01E000
01E000
00C000
00C000
01C000
038000
7F0000
7E0000
ENDCHAR
STARTCHAR 00FE
ENCODING 254
SWIDTH 660 0
DWIDTH 22 0
BBX 17 29 3 -5
BITMAP
C00000
C00000
C00000
C00000
C00000
C00000
C00000
C3F000
CFFC00
DE3E00
F80E00
F00700
E00300
E00380
C00380
C00380
C00380
E00380
E00300
F00700
F80E00
DE3E00
CFF800
C3E000
C00000
C00000
C00000
C00000
C00000
ENDCHAR
STARTCHAR 00FF
ENCODING 255
SWIDTH 600 0
DWIDTH 20 0
BBX 17 28 1 -6
BITMAP
0E3800
0E3800
0E3800
000000
000000
000000
E00380
700380
700300
300700
380600
180E00
1C0E00
1C0C00
0E1C00
0E1800
063800
073000
033000
03F000
01E000
01E000
00C000
00C000
01C000
038000
7F0000
7E0000
ENDCHAR
STARTCHAR 0131
ENCODING 305
SWIDTH 270 0
DWIDTH 9 0
BBX 3 17 3 0
BITMAP
E0
E0
E0
E0
E0
E0
E0
E0
E0
E0
E0
E0
E0
E0
E0
E0
E0
ENDCHAR
STARTCHAR 0141
ENCODING 321
SWIDTH 660 0
DWIDTH 22 0
BBX 18 23 2 0
BITMAP
380000
380000
380000
380000
380000
380000
380000
380000
387000
3BF000
3FE000
FE0000
F80000
B80000
380000
380000
380000
380000
380000
380000
380000
3FFFC0
3FFFC0
ENDCHAR
STARTCHAR 0142
ENCODING 322
SWIDTH 330 0
DWIDTH 11 0
BBX 7 24 2 0
BITMAP
38
38
38
38
38
38
38
38
38
38
3E
FE
F8
F8
38
38
38
38
38
38
38
38
38
38
ENDCHAR
STARTCHAR 0152
ENCODING 338
SWIDTH 1140 0
DWIDTH 38 0
BBX 33 23 2 0
BITMAP
007FFFFF80
03FFFFFF80
07E0600000
1F00600000
1C00600000
3800600000
7000600000
7000600000
6000600000
E000600000
E0007FFE00
E0007FFE00
E0007FFE00
E000600000
6000600000
7000600000
7000600000
3800600000
1C00600000
1F00600000
07F0600000
03FFFFFF80
007FFFFF80
ENDCHAR
STARTCHAR 0153
ENCODING 339
SWIDTH 1050 0
DWIDTH 35 0
BBX 31 17 2 0
BITMAP
03E00FC0
0FF83FF0
3E3E7878
380EE038
7007C01C
E003C00C
E003800E
C001800E
C001FFFE
C0018000
E003C000
E003C000
7007C000
780EE01C
3E3C783C
0FF83FF0
07E00FC0
ENDCHAR
STARTCHAR 0160
ENCODING 352
SWIDTH 630 0
DWIDTH 21 0
BBX 17 29 2 0
BITMAP
0E3800
077000
03E000
01C000
000000
000000
07F000
1FFC00
3C3F00
700700
700200
600000
600000
700000
700000
3E0000
1FC000
07F800
00FE00
001F00
000780
000380
000380
000380
600380
F00700
7E1E00
1FFC00
07F000
ENDCHAR
STARTCHAR 0161
ENCODING 353
SWIDTH 510 0
DWIDTH 17 0
BBX 13 24 1 0
BITMAP
1830
1C60
0FC0
0780
0380
0000
0000
0FC0
1FF8
3878
7000
7000
7000
3C00
3F80
0FE0
01F8
0038
0018
0018
6018
F838
3FF0
0FC0
ENDCHAR
STARTCHAR 0178
ENCODING 376
SWIDTH 720 0
DWIDTH 24 0
BBX 21 28 1 1
BITMAP
038E00
038E00
038E00
000000
000000
E00038
700070
380070
3800E0
1C01C0
0E01C0
0E0380
070700
038700
038E00
01DC00
00FC00
00F800
007000
007000
007000
007000
007000
007000
007000
007000
007000
007000
ENDCHAR
STARTCHAR 017D
ENCODING 381
SWIDTH 690 0
DWIDTH 23 0
BBX 19 29 2 1
BITMAP
031800
03B800
01F000
00E000
000000
000000
7FFFE0
7FFFE0
0001C0
000380
000700
000700
000E00
001C00
003800
007000
007000
00E000
01C000
038000
078000
070000
0E0000
1C0000
380000
380000
700000
FFFFE0
FFFFE0
ENDCHAR
STARTCHAR 017E
ENCODING 382
SWIDTH 570 0
DWIDTH 19 0
BBX 14 24 2 0
BITMAP
1870
0CE0
07C0
0780
0000
0000
0000
FFFC
FFFC
001C
0038
0070
00E0
01C0
0180
0380
0700
0E00
1C00
3800
7000
7000
FFFC
FFFC
ENDCHAR
STARTCHAR 0192
ENCODING 402
SWIDTH 510 0
DWIDTH 17 0
BBX 15 23 1 0
BITMAP
003E
00FE
00E0
01C0
01C0
0180
0180
0380
0380
1FF8
1FF8
0300
0700
0700
0700
0600
0600
0E00
0E00
0E00
1C00
FC00
F000
ENDCHAR
STARTCHAR 02C6
ENCODING 710
SWIDTH 510 0
DWIDTH 17 0
BBX 8 4 4 19
BITMAP
1C
3C
7E
E3
ENDCHAR
STARTCHAR 02C7
ENCODING 711
SWIDTH 510 0
DWIDTH 17 0
BBX 8 4 4 19
BITMAP
C3
67
7E
3C
ENDCHAR
STARTCHAR 02D8
ENCODING 728
SWIDTH 510 0
DWIDTH 17 0
BBX 10 4 3 19
BITMAP
C0C0
60C0
7F80
3F00
ENDCHAR
STARTCHAR 02D9
ENCODING 729
SWIDTH 510 0
DWIDTH 17 0
BBX 3 3 7 19
BITMAP
E0
E0
E0
ENDCHAR
STARTCHAR 02DA
ENCODING 730
SWIDTH 510 0
DWIDTH 17 0
BBX 7 6 5 20
BITMAP
78
CC
86
86
C4
7C
ENDCHAR
STARTCHAR 02DB
ENCODING 731
SWIDTH 510 0
DWIDTH 17 0
BBX 6 5 6 -5
BITMAP
C0
C0
C0
F0
7C
ENDCHAR
STARTCHAR 02DC
ENCODING 732
SWIDTH 510 0
DWIDTH 17 0
BBX 10 4 3 20
BITMAP
7840
7FC0
CFC0
C100
ENDCHAR
STARTCHAR 02DD
ENCODING 733
SWIDTH 510 0
DWIDTH 17 0
BBX 10 4 3 20
BITMAP
38C0
39C0
7380
E300
ENDCHAR
STARTCHAR 03A9
ENCODING 937
SWIDTH 750 0
DWIDTH 25 0
BBX 23 24 1 0
BITMAP
03E03E
0FE0FE
1E21E2
1C01C0
180180
180180
180180
FFEFFE
FFEFFE
180180
180180
180180
180180
180180
180180
180180
180180
180180
180180
180180
180180
180180
180180
180180
ENDCHAR
STARTCHAR 03C0
ENCODING 960
SWIDTH 840 0
DWIDTH 28 0
BBX 23 23 2 0
BITMAP
00FE00
0301C0
0C0060
180010
300008
20F80C
40FF04
408382
808182
808182
808182
808702
80FE02
808002
808002
C08002
408004
60000C
300008
180010
0C0060
030180
00FE00
ENDCHAR
STARTCHAR 2013
ENCODING 8211
SWIDTH 540 0
DWIDTH 18 0
BBX 13 2 2 9
BITMAP
FFF8
FFF8
ENDCHAR
STARTCHAR 2014
ENCODING 8212
SWIDTH 900 0
DWIDTH 30 0
BBX 25 2 2 9
BITMAP
FFFFFF80
FFFFFF80
ENDCHAR
STARTCHAR 2018
ENCODING 8216
SWIDTH 240 0
DWIDTH 8 0
BBX 4 7 2 16
BITMAP
30
60
40
C0
E0
E0
E0
ENDCHAR
STARTCHAR 2019
ENCODING 8217
SWIDTH 240 0
DWIDTH 8 0
BBX 4 7 2 15
BITMAP
70
70
70
30
30
60
C0
ENDCHAR
STARTCHAR 201A
ENCODING 8218
SWIDTH 240 0
DWIDTH 8 0
BBX 4 7 2 -3
BITMAP
70
70
70
20
60
E0
80
ENDCHAR
STARTCHAR 201C
ENCODING 8220
SWIDTH 450 0
DWIDTH 15 0
BBX 11 7 2 16
BITMAP
3060
60C0
4180
C180
E1C0
E1C0
E1C0
ENDCHAR
STARTCHAR 201D
ENCODING 8221
SWIDTH 450 0
DWIDTH 15 0
BBX 10 7 2 15
BITMAP
71C0
71C0
71C0
30C0
30C0
60C0
C380
ENDCHAR
STARTCHAR 201E
ENCODING 8222
SWIDTH 450 0
DWIDTH 15 0
BBX 10 7 2 -3
BITMAP
71C0
71C0
71C0
20C0
60C0
E180
8300
ENDCHAR
STARTCHAR 2020
ENCODING 8224
SWIDTH 420 0
DWIDTH 14 0
BBX 9 15 2 7
BITMAP
0C00
0C00
0C00
0800
8800
FF80
0800
0800
0800
0800
0800
0C00
0C00
0C00
0C00
ENDCHAR
STARTCHAR 2021
ENCODING 8225
SWIDTH 420 0
DWIDTH 14 0
BBX 10 23 2 0
BITMAP
0C00
0C00
0C00
0C00
8C40
FFC0
0C00
0C00
0C00
0C00
0C00
0C00
0C00
0C00
0C00
0C00
0C00
FFC0
CCC0
0C00
0C00
0C00
0C00
ENDCHAR
STARTCHAR 2022
ENCODING 8226
SWIDTH 480 0
DWIDTH 16 0
BBX 8 9 4 7
BITMAP
3C
7E
FF
FF
FF
FF
FF
7E
18
ENDCHAR
STARTCHAR 2026
ENCODING 8230
SWIDTH 720 0
DWIDTH 24 0
BBX 18 3 3 1
BITMAP
C1C1C0
C1C1C0
C1C1C0
ENDCHAR
STARTCHAR 2030
ENCODING 8240
SWIDTH 1200 0
DWIDTH 40 0
BBX 36 23 2 0
BITMAP
1E00380000
7F00300000
6180600000
C1C0E00000
C0C0C00000
C0C1800000
C0C3000000
C0C7000000
E186000000
738C000000
3F1C000000
0038000000
0031F80FC0
0063DC1DE0
00E30E3060
00C7063070
0186073030
0306077030
0707063030
0603063060
0C038E3860
1801FC1FC0
3800F00F80
ENDCHAR
STARTCHAR 2039
ENCODING 8249
SWIDTH 330 0
DWIDTH 11 0
BBX 7 13 2 2
BITMAP
0E
1C
38
38
70
E0
C0
E0
70
38
38
1C
0E
ENDCHAR
STARTCHAR 203A
ENCODING 8250
SWIDTH 330 0
DWIDTH 11 0
BBX 7 13 2 2
BITMAP
E0
60
70
38
1C
0C
0E
0C
1C
38
70
60
E0
ENDCHAR
STARTCHAR 2044
ENCODING 8260
SWIDTH 420 0
DWIDTH 14 0
BBX 17 28 -2 -4
BITMAP
000180
000380
000300
000700
000600
000E00
000C00
001800
003800
003000
007000
006000
00E000
00C000
01C000
018000
038000
030000
070000
060000
0C0000
1C0000
180000
380000
300000
700000
600000
E00000
ENDCHAR
STARTCHAR 2122
ENCODING 8482
SWIDTH 690 0
DWIDTH 23 0
BBX 20 10 1 12
BITMAP
FF3030
183030
183870
182CD0
182490
182790
182310
182010
182010
182010
ENDCHAR
STARTCHAR 221A
ENCODING 8730
SWIDTH 990 0
DWIDTH 33 0
BBX 29 24 1 0
BITMAP
03E03E38
0FE0FE38
1E01E038
1C01C038
18018038
18018038
18018038
FFEFFE38
FFEFFE38
18018038
18018038
18018038
18018038
18018038
18018038
18018038
18018038
18018038
18018038
18018038
18018038
18018038
18018038
18018038
ENDCHAR
STARTCHAR 2248
ENCODING 8776
SWIDTH 990 0
DWIDTH 33 0
BBX 29 24 1 0
BITMAP
03E03E00
0FE0FE38
1E21E238
1C01C000
18018000
18018000
18018000
FFEFFE38
FFEFFE38
18018038
18018038
18018038
18018038
18018038
18018038
18018038
18018038
18018038
18018038
18018038
18018038
18018038
18018038
18018038
ENDCHAR
STARTCHAR F8FF
ENCODING 63743
SWIDTH 960 0
DWIDTH 32 0
BBX 25 27 3 -3
BITMAP
FFFFFF80
FFFFFF80
FFD7FF80
FFFFFF80
FFFFFF80
FFFFDF80
DDF7EF80
FFFFFF80
FFFFFF80
FFFFFF80
C2092080
C31C6A80
F3DEFB80
C38C7180
FFFFFF80
FFFFFF80
FDBB6D80
FD7BF580
FFFFFF80
FFFFFF80
FFFFFF80
FF77CF80
FFFFDF80
FFFFFF80
00000000
00000000
246D8A00
ENDCHAR
STARTCHAR FB01
ENCODING 64257
SWIDTH 630 0
DWIDTH 21 0
BBX 17 24 1 0
BITMAP
03E000
0FE380
1E2380
1C0000
180000
180000
180000
FFE380
FFE380
180380
180380
180380
180380
180380
180380
180380
180380
180380
180380
180380
180380
180380
180380
180380
ENDCHAR
STARTCHAR FB02
ENCODING 64258
SWIDTH 630 0
DWIDTH 21 0
BBX 17 24 1 0
BITMAP
03E380
0FE380
1E0380
1C0380
180380
180380
180380
FFE380
FFE380
180380
180380
180380
180380
180380
180380
180380
180380
180380
180380
180380
180380
180380
180380
180380
ENDCHAR
ENDFONT
